<svg width="60" height="60" viewBox="0 0 60 60" fill="none" xmlns="http://www.w3.org/2000/svg">
<g id="Frame 684898371">
<g id="Group">
<path id="Vector" fill-rule="evenodd" clip-rule="evenodd" d="M14.7835 39.1385L6.13757 57.8733C5.79163 58.6242 6.1207 59.5186 6.87163 59.8645C7.6226 60.2105 8.517 59.8814 8.8629 59.1305L13.3124 49.4888C13.3742 49.4972 13.4361 49.5 13.5008 49.5H42.0004C42.0651 49.5 42.127 49.4944 42.1888 49.4888L43.4404 52.2029C42.5545 53.0241 42.0004 54.1998 42.0004 55.502C42.0004 57.9855 44.017 60.0021 46.5005 60.0021C48.984 60.0021 51.0006 57.9855 51.0006 55.502C51.0006 53.0185 48.984 51.0019 46.5005 51.0019C46.3992 51.0019 46.2952 51.0047 46.1967 51.0131L40.7235 39.1581C44.5964 36.1656 47.243 31.8622 47.8702 27.0021H52.4997C53.3265 27.0021 53.9987 26.3299 53.9987 25.5031C53.9987 24.6762 53.3265 24.004 52.4997 24.004H47.9996C47.9489 22.8762 47.7914 21.7539 47.5243 20.6515C47.3611 19.9793 46.7592 19.5039 46.0674 19.5039H9.46476C8.77287 19.5039 8.17096 19.9792 8.00788 20.6515C7.68163 21.9987 7.51849 23.3769 7.51849 24.7578C7.51849 30.5207 10.3395 35.6955 14.7863 39.1436L14.7835 39.1385ZM17.3148 40.812L14.6907 46.4989H40.8077L38.1893 40.826C35.1461 42.5248 31.5798 43.5007 27.7635 43.5007C23.9356 43.5007 20.3581 42.5163 17.3118 40.8091L17.3148 40.812ZM27.7665 34.5034C27.069 34.5034 26.3827 34.4472 25.7161 34.3403C24.8977 34.2109 24.127 34.765 23.9977 35.5835C23.8683 36.4019 24.4223 37.1725 25.2408 37.3019C26.0621 37.4341 26.9059 37.5016 27.7665 37.5016C28.5934 37.5016 29.2656 36.8294 29.2656 36.0026C29.2656 35.1757 28.5934 34.5034 27.7665 34.5034ZM20.4202 32.138C18.578 30.7655 17.2308 28.8698 16.7329 26.6676C16.5501 25.8604 15.7457 25.3541 14.9385 25.537C14.1313 25.7198 13.6251 26.5242 13.8079 27.3314C14.4632 30.2255 16.2042 32.7399 18.6286 34.543C19.2924 35.038 20.2346 34.9002 20.7296 34.2365C21.2218 33.5727 21.0868 32.6305 20.423 32.1355L20.4202 32.138Z" fill="#A89C6C"/>
<path id="Vector_2" fill-rule="evenodd" clip-rule="evenodd" d="M19.9387 0.438758C19.9387 0.438758 19.0668 1.31062 18.088 2.2866C17.1148 3.26258 16.6114 4.6098 16.7098 5.9851C16.8083 7.36047 17.4945 8.6233 18.5971 9.45016C19.0049 9.75391 19.258 10.2208 19.2918 10.727C19.3283 11.2333 19.1427 11.7311 18.7827 12.0883C17.8067 13.0643 16.9349 13.9389 16.9349 13.9389C16.3498 14.524 16.3498 15.4746 16.9349 16.0596C17.5199 16.6446 18.4705 16.6446 19.0555 16.0596C19.0555 16.0596 19.9274 15.1877 20.9062 14.2118C21.8793 13.2358 22.3828 11.8886 22.2843 10.5133C22.1859 9.13789 21.4997 7.87506 20.3971 7.0482C19.9893 6.74444 19.7362 6.27757 19.7024 5.77132C19.6658 5.26507 19.8515 4.76726 20.2115 4.41007C21.1875 3.43409 22.0593 2.55941 22.0593 2.55941C22.6443 1.9744 22.6443 1.02377 22.0593 0.438758C21.4743 -0.146253 20.5237 -0.146253 19.9387 0.438758Z" fill="#A89C6C"/>
<path id="Vector_3" fill-rule="evenodd" clip-rule="evenodd" d="M28.9387 0.438758C28.9387 0.438758 28.0668 1.31062 27.088 2.2866C26.1148 3.26258 25.6114 4.6098 25.7098 5.9851C25.8083 7.36047 26.4945 8.6233 27.5971 9.45016C28.0049 9.75391 28.258 10.2208 28.2918 10.727C28.3283 11.2333 28.1427 11.7311 27.7827 12.0883C26.8067 13.0643 25.9349 13.9389 25.9349 13.9389C25.3498 14.524 25.3498 15.4746 25.9349 16.0596C26.5199 16.6446 27.4705 16.6446 28.0555 16.0596C28.0555 16.0596 28.9274 15.1877 29.9062 14.2118C30.8793 13.2358 31.3828 11.8886 31.2843 10.5133C31.1859 9.13789 30.4997 7.87506 29.3971 7.0482C28.9893 6.74444 28.7362 6.27757 28.7024 5.77132C28.6658 5.26507 28.8515 4.76726 29.2115 4.41007C30.1875 3.43409 31.0593 2.55941 31.0593 2.55941C31.6443 1.9744 31.6443 1.02377 31.0593 0.438758C30.4743 -0.146253 29.5237 -0.146253 28.9387 0.438758Z" fill="#A89C6C"/>
<path id="Vector_4" fill-rule="evenodd" clip-rule="evenodd" d="M37.9387 0.438758C37.9387 0.438758 37.0668 1.31062 36.088 2.2866C35.1148 3.26258 34.6114 4.6098 34.7098 5.9851C34.8083 7.36047 35.4945 8.6233 36.5971 9.45016C37.0049 9.75391 37.258 10.2208 37.2918 10.727C37.3283 11.2333 37.1427 11.7311 36.7827 12.0883C35.8067 13.0643 34.9349 13.9389 34.9349 13.9389C34.3498 14.524 34.3498 15.4746 34.9349 16.0596C35.5199 16.6446 36.4705 16.6446 37.0555 16.0596C37.0555 16.0596 37.9274 15.1877 38.9062 14.2118C39.8793 13.2358 40.3828 11.8886 40.2843 10.5133C40.1859 9.13789 39.4997 7.87506 38.3971 7.0482C37.9893 6.74444 37.7362 6.27757 37.7024 5.77132C37.6658 5.26507 37.8515 4.76726 38.2115 4.41007C39.1875 3.43409 40.0593 2.55941 40.0593 2.55941C40.6443 1.9744 40.6443 1.02377 40.0593 0.438758C39.4743 -0.146253 38.5237 -0.146253 37.9387 0.438758Z" fill="#A89C6C"/>
</g>
</g>
</svg>
