<svg width="80" height="80" viewBox="0 0 80 80" fill="none" xmlns="http://www.w3.org/2000/svg">
<path id="Vector" fill-rule="evenodd" clip-rule="evenodd" d="M39.9065 27.0147C37.3651 27.0147 34.8807 27.7683 32.7676 29.1802C30.6544 30.5921 29.0074 32.5989 28.0347 34.9468C27.0621 37.2948 26.8075 39.8784 27.3032 42.371C27.7989 44.8637 29.0226 47.1533 30.8195 48.9505C32.6164 50.7477 34.9059 51.9717 37.3985 52.4677C39.891 52.9637 42.4747 52.7095 44.8228 51.7372C47.1709 50.7649 49.1779 49.1181 50.5901 47.0052C52.0023 44.8922 52.7562 42.408 52.7566 39.8665C52.7526 36.4597 51.3975 33.1936 48.9885 30.7846C46.5795 28.3756 43.3133 27.0205 39.9065 27.0165V27.0147ZM45.4204 35.8627C45.0684 35.5113 44.5914 35.3139 44.094 35.3139C43.5966 35.3139 43.1195 35.5113 42.7675 35.8627L38.7424 39.8914L37.0473 38.1972C36.8737 38.0209 36.667 37.8806 36.439 37.7845C36.2109 37.6884 35.9662 37.6384 35.7188 37.6373C35.4713 37.6362 35.2261 37.6841 34.9973 37.7782C34.7684 37.8723 34.5605 38.0107 34.3854 38.1856C34.2103 38.3604 34.0715 38.5681 33.977 38.7968C33.8825 39.0255 33.8342 39.2706 33.8349 39.518C33.8356 39.7655 33.8852 40.0103 33.9809 40.2385C34.0766 40.4666 34.2165 40.6736 34.3926 40.8475L37.4163 43.8712C37.5905 44.0455 37.7973 44.1837 38.0249 44.278C38.2525 44.3723 38.4964 44.4208 38.7428 44.4208C38.9892 44.4208 39.2331 44.3723 39.4607 44.278C39.6883 44.1837 39.8951 44.0455 40.0693 43.8712L45.4204 38.5165C45.5946 38.3424 45.7328 38.1357 45.8271 37.9082C45.9214 37.6807 45.9699 37.4368 45.9699 37.1905C45.9699 36.9442 45.9214 36.7004 45.8271 36.4728C45.7328 36.2453 45.5946 36.0386 45.4204 35.8645V35.8627ZM19.6295 21.4616C19.3832 21.4616 19.1392 21.413 18.9117 21.3185C18.6841 21.224 18.4775 21.0856 18.3035 20.9111L11.6931 14.2998C11.3413 13.948 11.1436 13.4708 11.1436 12.9733C11.1436 12.4758 11.3413 11.9987 11.6931 11.6469C12.0449 11.2951 12.522 11.0974 13.0195 11.0974C13.517 11.0974 13.9942 11.2951 14.346 11.6469L20.9573 18.2582C21.2188 18.521 21.3966 18.8552 21.4684 19.2189C21.5402 19.5825 21.5027 19.9593 21.3607 20.3017C21.2187 20.644 20.9785 20.9367 20.6705 21.1428C20.3624 21.349 20.0002 21.4593 19.6295 21.4599V21.4616ZM0 39.8665C0.000235666 39.3689 0.198014 38.8918 0.549877 38.5399C0.90174 38.188 1.3789 37.9903 1.87651 37.99H11.227C11.7175 38.0007 12.1843 38.2031 12.5274 38.5537C12.8706 38.9044 13.0627 39.3755 13.0627 39.8661C13.0627 40.3567 12.8706 40.8278 12.5274 41.1785C12.1843 41.5291 11.7175 41.7315 11.227 41.7422H1.87651C1.37898 41.7422 0.901819 41.5446 0.549931 41.1929C0.198043 40.8411 0.000235795 40.3641 0 39.8665ZM13.0146 68.634C12.6438 68.6338 12.2814 68.5236 11.9732 68.3174C11.665 68.1112 11.4248 67.8183 11.283 67.4757C11.1412 67.1331 11.1041 66.7561 11.1764 66.3924C11.2488 66.0288 11.4273 65.6947 11.6895 65.4324L18.3 58.8193C18.6519 58.4674 19.1292 58.2697 19.6269 58.2697C20.1245 58.2697 20.6018 58.4674 20.9538 58.8193C21.3057 59.1712 21.5034 59.6485 21.5034 60.1462C21.5034 60.6439 21.3057 61.1212 20.9538 61.4731L14.3424 68.0835C13.99 68.4352 13.5124 68.6326 13.0146 68.6323V68.634ZM68.1235 65.4324C68.4596 65.7872 68.644 66.2592 68.6373 66.7479C68.6307 67.2365 68.4335 67.7033 68.0879 68.0488C67.7423 68.3944 67.2754 68.5913 66.7868 68.5978C66.2981 68.6043 65.8262 68.4198 65.4715 68.0835L58.8601 61.4713C58.5084 61.1189 58.3112 60.6412 58.3117 60.1434C58.3122 59.6455 58.5104 59.1683 58.8628 58.8166C59.2152 58.4649 59.6928 58.2676 60.1907 58.2681C60.6885 58.2686 61.1658 58.4669 61.5175 58.8193L68.128 65.4324H68.1235ZM79.813 39.8665C79.813 40.364 79.6154 40.8411 79.2636 41.1928C78.9119 41.5445 78.4348 41.7422 77.9374 41.7422H68.5869C68.0964 41.7315 67.6296 41.5291 67.2864 41.1785C66.9433 40.8278 66.7512 40.3567 66.7512 39.8661C66.7512 39.3755 66.9433 38.9044 67.2864 38.5537C67.6296 38.2031 68.0964 38.0007 68.5869 37.99H77.9374C78.4348 37.9905 78.9118 38.1884 79.2634 38.5402C79.6151 38.8921 79.8128 39.3691 79.813 39.8665ZM60.1835 21.4634C59.8129 21.4626 59.4508 21.3522 59.1429 21.146C58.8349 20.9399 58.5949 20.6472 58.453 20.3048C58.3111 19.9625 58.2738 19.5858 58.3456 19.2222C58.4174 18.8587 58.5952 18.5245 58.8566 18.2618L65.4679 11.6504C65.8206 11.3029 66.2964 11.1089 66.7915 11.1108C67.2866 11.1126 67.7609 11.3102 68.1109 11.6603C68.461 12.0105 68.6584 12.4849 68.6601 12.98C68.6617 13.4751 68.4676 13.9508 68.1199 14.3033L61.5175 20.9129C61.3437 21.0876 61.1371 21.2262 60.9095 21.3207C60.6819 21.4152 60.4379 21.4637 60.1915 21.4634H60.1835ZM39.9065 13.0618C39.6601 13.0618 39.4161 13.0133 39.1885 12.919C38.9609 12.8246 38.7541 12.6864 38.5799 12.5121C38.4057 12.3379 38.2676 12.131 38.1734 11.9033C38.0792 11.6757 38.0308 11.4317 38.0309 11.1853V1.83566C38.0416 1.34517 38.2439 0.878367 38.5946 0.535252C38.9452 0.192137 39.4163 0 39.9069 0C40.3976 0 40.8687 0.192137 41.2193 0.535252C41.57 0.878367 41.7723 1.34517 41.783 1.83566V11.1853C41.7831 11.4318 41.7347 11.6758 41.6404 11.9035C41.5461 12.1313 41.4079 12.3382 41.2337 12.5125C41.0594 12.6867 40.8525 12.8249 40.6247 12.9192C40.397 13.0135 40.153 13.0619 39.9065 13.0618ZM49.7648 58.1914C53.8453 55.996 57.0762 52.5014 58.9453 48.2614C60.8144 44.0215 61.2146 39.2791 60.0826 34.7859C58.9506 30.2927 56.3512 26.3059 52.6964 23.4577C49.0415 20.6094 44.5405 19.0627 39.9069 19.0627C35.2734 19.0627 30.7724 20.6094 27.1175 23.4577C23.4627 26.3059 20.8632 30.2927 19.7313 34.7859C18.5993 39.2791 18.9995 44.0215 20.8686 48.2614C22.7377 52.5014 25.9686 55.996 30.049 58.1914C31.14 58.768 32.0537 59.6302 32.6927 60.6858C33.3316 61.7414 33.6717 62.9508 33.6767 64.1847H46.1363C46.1413 62.9507 46.4815 61.7412 47.1206 60.6855C47.7597 59.6299 48.6737 58.7678 49.7648 58.1914ZM37.3523 75.1582H42.4607C42.1305 75.5029 41.734 75.7772 41.2951 75.9646C40.8561 76.152 40.3838 76.2486 39.9065 76.2486C39.4292 76.2486 38.9569 76.152 38.5179 75.9646C38.079 75.7772 37.6825 75.5029 37.3523 75.1582ZM46.1337 67.9368V70.5568C46.1311 70.781 46.0411 70.9953 45.8827 71.1539C45.7244 71.3126 45.5103 71.4031 45.2861 71.4061H34.5251C34.3008 71.4034 34.0865 71.313 33.9279 71.1542C33.7694 70.9955 33.6792 70.7811 33.6767 70.5568V67.9368H46.1337ZM39.9083 15.3083C34.4391 15.3083 29.1264 17.1339 24.8124 20.4956C20.4983 23.8572 17.4298 28.5627 16.0932 33.866C14.7565 39.1693 15.2283 44.7671 17.4337 49.7719C19.6391 54.7767 23.4519 58.9022 28.2677 61.4944C28.7785 61.754 29.2055 62.1528 29.4993 62.6447C29.7931 63.1366 29.9418 63.7017 29.9281 64.2745V70.5568C29.9289 71.5 30.2194 72.4201 30.7602 73.1928C31.301 73.9655 32.066 74.5535 32.9519 74.8772C33.4131 76.3616 34.3371 77.6594 35.5887 78.5811C36.8403 79.5028 38.3539 80 39.9083 80C41.4626 80 42.9762 79.5028 44.2279 78.5811C45.4795 77.6594 46.4034 76.3616 46.8647 74.8772C47.7505 74.5534 48.5155 73.9654 49.0562 73.1927C49.597 72.42 49.8875 71.4999 49.8885 70.5568V64.2745C49.8746 63.7017 50.0231 63.1367 50.3167 62.6448C50.6104 62.1529 51.0372 61.754 51.548 61.4944C56.3639 58.9022 60.1767 54.7766 62.3821 49.7717C64.5874 44.7668 65.0591 39.1689 63.7224 33.8656C62.3856 28.5622 59.317 23.8567 55.0028 20.4951C50.6886 17.1335 45.3757 15.3081 39.9065 15.3083H39.9083Z" fill="#A89C6C"/>
</svg>
