<svg width="26" height="26" viewBox="0 0 26 26" fill="none" xmlns="http://www.w3.org/2000/svg">
<path id="Vector" fill-rule="evenodd" clip-rule="evenodd" d="M2.71022 0.298828H23.2898C24.0081 0.300322 24.6966 0.586341 25.2045 1.09428C25.7125 1.60222 25.9985 2.29071 26 3.00905V17.4871C25.9985 18.2052 25.7124 18.8934 25.2044 19.4008C24.6964 19.9083 24.0079 20.1937 23.2898 20.1945H20.5061V24.6173C20.5065 24.8351 20.4412 25.048 20.3188 25.2281C20.1963 25.4082 20.0224 25.5471 19.8197 25.6268C19.617 25.7065 19.395 25.7231 19.1826 25.6746C18.9703 25.6261 18.7776 25.5147 18.6296 25.3549L13.8478 20.1945H2.71022C1.99214 20.1937 1.30365 19.9083 0.795627 19.4008C0.287606 18.8934 0.0014956 18.2052 0 17.4871V3.00905C0.00149343 2.29071 0.287513 1.60222 0.795454 1.09428C1.30339 0.586341 1.99188 0.300322 2.71022 0.298828ZM13 14.6977C12.7569 14.6977 12.5192 14.7698 12.317 14.9049C12.1148 15.04 11.9573 15.232 11.8642 15.4566C11.7712 15.6813 11.7468 15.9285 11.7943 16.1669C11.8417 16.4054 11.9588 16.6244 12.1307 16.7964C12.3026 16.9683 12.5217 17.0854 12.7602 17.1328C12.9986 17.1802 13.2458 17.1559 13.4705 17.0629C13.6951 16.9698 13.8871 16.8122 14.0222 16.6101C14.1572 16.4079 14.2293 16.1702 14.2293 15.9271C14.2293 15.601 14.0998 15.2884 13.8693 15.0578C13.6387 14.8273 13.326 14.6977 13 14.6977ZM11.3043 7.34991C11.3047 7.04733 11.386 6.75035 11.5399 6.48979C11.6937 6.22924 11.9145 6.0146 12.1793 5.86814C12.444 5.72168 12.7432 5.64874 13.0457 5.65689C13.3481 5.66504 13.6429 5.75398 13.8994 5.91449C14.1559 6.07499 14.3648 6.30121 14.5044 6.56967C14.644 6.83814 14.7092 7.13906 14.6933 7.44123C14.6774 7.74339 14.5809 8.03579 14.4138 8.28808C14.2468 8.54037 14.0152 8.74337 13.7433 8.876C13.1674 9.1495 12.6817 9.58179 12.3433 10.122C12.0048 10.6622 11.8277 11.2879 11.8328 11.9253V12.3464C11.8328 12.4997 11.863 12.6515 11.9217 12.7931C11.9803 12.9347 12.0663 13.0634 12.1747 13.1718C12.2831 13.2801 12.4117 13.3661 12.5533 13.4248C12.6949 13.4834 12.8467 13.5136 13 13.5136C13.1533 13.5136 13.305 13.4834 13.4467 13.4248C13.5883 13.3661 13.7169 13.2801 13.8253 13.1718C13.9337 13.0634 14.0197 12.9347 14.0783 12.7931C14.137 12.6515 14.1672 12.4997 14.1672 12.3464V11.9395C14.1649 11.7406 14.2177 11.545 14.3198 11.3743C14.4272 11.2079 14.5789 11.0748 14.7578 10.9899C15.4055 10.676 15.9573 10.1943 16.3559 9.59488C16.7544 8.99551 16.9851 8.30033 17.0241 7.5816C17.063 6.86288 16.9088 6.14683 16.5774 5.50789C16.246 4.86895 15.7495 4.33043 15.1395 3.94831C14.5295 3.56618 13.8283 3.3544 13.1088 3.33496C12.3893 3.31552 11.6777 3.48915 11.048 3.83779C10.4183 4.18643 9.89344 4.69736 9.52801 5.31747C9.16258 5.93759 8.9699 6.64426 8.97 7.36404C8.97 7.6736 9.09297 7.97047 9.31186 8.18936C9.53074 8.40825 9.82762 8.53122 10.1372 8.53122C10.4467 8.53122 10.7436 8.40825 10.9625 8.18936C11.1814 7.97047 11.3043 7.6736 11.3043 7.36404V7.34991Z" fill="white"/>
</svg>
