<svg width="209" height="147" viewBox="0 0 209 147" fill="none" xmlns="http://www.w3.org/2000/svg">
<g id="Group">
<g id="Group_2">
<path id="Vector" d="M66.9 3.17747C61.1938 1.06897 54.9314 0 48.2866 0C35.3889 0 23.2631 5.02263 14.1429 14.1426C5.02263 23.2629 0 35.3887 0 48.2864C0 54.9182 1.09967 61.1906 3.26874 66.9295C5.50796 72.8541 8.83235 78.0652 13.1496 82.4181C20.9874 90.3203 31.7768 95.0435 44.6273 96.259C39.7328 105.705 29.5372 124.784 19.4845 139.898C18.6138 141.207 18.5339 142.889 19.2764 144.274C20.0189 145.66 21.4633 146.525 23.0353 146.525H41.0214C42.297 146.525 43.5058 145.954 44.3159 144.968C44.4454 144.811 57.4186 128.989 70.2089 109.884C87.703 83.7525 96.5733 64.0862 96.5733 51.4309C96.5733 35.349 91.6737 22.0329 82.4042 12.9218C78.0599 8.65196 72.8437 5.3734 66.9 3.17747Z" fill="#A89C6C"/>
</g>
<g id="Group_3">
<path id="Vector_2" d="M194.398 12.9218C190.054 8.65196 184.838 5.3734 178.894 3.17747C173.188 1.06897 166.926 0 160.281 0C147.383 0 135.257 5.02263 126.137 14.1426C117.017 23.2629 111.994 35.3887 111.994 48.2864C111.994 54.9182 113.094 61.1906 115.263 66.9295C117.502 72.8541 120.826 78.0652 125.144 82.4181C132.982 90.3203 143.771 95.0435 156.621 96.259C151.727 105.705 141.531 124.784 131.479 139.898C130.608 141.207 130.528 142.889 131.271 144.274C132.013 145.66 133.457 146.525 135.029 146.525H153.016C154.291 146.525 155.5 145.954 156.31 144.968C156.44 144.811 169.413 128.989 182.203 109.884C199.697 83.7525 208.567 64.0862 208.567 51.4309C208.567 35.349 203.668 22.0329 194.398 12.9218Z" fill="#A89C6C"/>
</g>
</g>
</svg>
