<svg width="80" height="80" viewBox="0 0 80 80" fill="none" xmlns="http://www.w3.org/2000/svg">
<g id="Group">
<path id="Vector" d="M72.7137 7.28376C65.5228 0.0829895 60.1202 1.16297 60.1202 1.16297L34.9277 26.3528L6.13615 55.1408L1.10156 78.8897L24.8523 73.8542L78.839 19.8791C78.839 19.8791 79.9163 14.4819 72.7137 7.28376ZM23.4381 70.9974L15.3387 72.7405C14.5582 71.2765 13.6169 69.8205 11.8969 68.0935C10.1761 66.3726 8.71122 65.4286 7.24635 64.65L8.98944 56.5487L11.3325 54.2154C11.3325 54.2154 15.744 54.3017 20.7092 59.2767C25.6825 64.2553 25.7776 68.6534 25.7776 68.6534L23.4381 70.9974Z" fill="#A89C6C"/>
<path id="Vector_2" d="M16.9432 37.5477L20.3458 34.146L4.90163 18.7009L18.6996 4.90287L21.888 8.09127L17.5894 12.3899C16.6481 13.3276 16.6499 14.8529 17.5894 15.7907C18.5272 16.732 20.0489 16.732 20.9903 15.7907L25.2889 11.4921L31.1688 17.3684L26.8684 21.6706C25.9288 22.6084 25.9288 24.1337 26.8702 25.0714C27.3857 25.5879 28.0746 25.7923 28.751 25.7408L37.5447 16.9453L21.7956 1.19627C20.0889 -0.510374 17.1717 -0.375265 15.2961 1.50115L1.49991 15.3C-0.374728 17.1756 -0.510726 20.0893 1.1968 21.7995L16.9432 37.5477Z" fill="#A89C6C"/>
<path id="Vector_3" d="M78.7997 58.2002L63.0604 42.4609L54.0535 51.4679C54.1103 51.9914 54.3068 52.507 54.7095 52.9097C55.6472 53.851 57.1681 53.851 58.1085 52.9097L62.4089 48.6102L68.287 54.4901L63.9866 58.7896C63.0471 59.7273 63.0471 61.2526 63.9866 62.1895C64.928 63.1317 66.4488 63.1317 67.3893 62.1895L71.6878 57.8909L75.094 61.298C75.0922 61.298 75.0922 61.298 75.0922 61.298L61.2969 75.0969L45.8616 59.6616L42.459 63.0624L58.2001 78.8026C59.9085 80.5101 62.8231 80.3741 64.6995 78.5012L78.4957 64.7032C80.3748 62.8242 80.5081 59.9095 78.7997 58.2002Z" fill="#A89C6C"/>
</g>
</svg>
