<svg width="62" height="80" viewBox="0 0 62 80" fill="none" xmlns="http://www.w3.org/2000/svg">
<path id="Vector" d="M30.9258 37.3937C29.7735 37.3937 28.8438 36.5213 28.8438 35.4444V33.382C25.3438 32.6228 22.75 30.0055 22.75 26.8991C22.75 25.8223 23.6797 24.9535 24.832 24.9535C25.9843 24.9535 26.914 25.8223 26.914 26.8991C26.914 28.4285 28.7578 29.7134 30.9257 29.7134C33.0936 29.7134 34.9374 28.4285 34.9374 26.8991C34.9374 25.3696 33.0936 24.0774 30.9257 24.0774C26.414 24.0774 22.7499 21.0695 22.7499 17.3717C22.7499 14.258 25.3437 11.648 28.8437 10.8888V9.425C28.8437 8.35184 29.7734 7.47941 30.9257 7.47941C32.078 7.47941 33.0077 8.35183 33.0077 9.425V10.8851C36.5077 11.6444 39.1015 14.2544 39.1015 17.3681C39.1015 18.4449 38.1718 19.3173 37.0195 19.3173C35.8672 19.3173 34.9375 18.4449 34.9375 17.3681C34.9375 15.8386 33.0937 14.5464 30.9258 14.5464C28.7579 14.5464 26.9141 15.8423 26.9141 17.3681C26.9141 18.8976 28.7579 20.1825 30.9258 20.1825C35.4375 20.1825 39.1016 23.2013 39.1016 26.8991C39.1016 30.0055 36.5078 32.6228 33.0078 33.382V35.4444C33.0078 35.9628 32.789 36.4556 32.3984 36.8207C32.0078 37.1857 31.4766 37.3937 30.9258 37.3937ZM0.00776155 45.4025C-0.0859884 44.3841 0.679642 43.4715 1.75776 43.3108C16.3438 41.19 24.5508 48.0599 28.8438 54.0975V44.8477C20.5313 44.1724 13.1918 39.5219 9.44576 32.5574C5.69966 25.5926 6.08246 17.3103 10.4614 10.6774C14.8403 4.04108 22.5864 0 30.9264 0C39.2664 0 47.0124 4.04089 51.3914 10.6774C55.7703 17.3101 56.1531 25.5927 52.407 32.5574C48.6609 39.5221 41.321 44.173 33.009 44.8477V54.1231C37.302 48.0892 45.509 41.2161 60.091 43.3476L60.0949 43.3513C61.173 43.5083 61.9387 44.4244 61.8449 45.4429C61.8449 45.6474 59.6379 65.6399 33.0129 70.2647V78.0508H33.009C33.009 79.1276 32.0793 80 30.927 80C29.7747 80 28.845 79.1276 28.845 78.0508V70.2647C2.21996 65.6032 0.0329613 45.6065 0.00896128 45.4028L0.00776155 45.4025ZM30.9258 41.0151C36.1992 41.0151 41.2538 39.0548 44.9808 35.5725C48.7113 32.0864 50.8011 27.3629 50.8011 22.4346C50.8011 17.5067 48.7034 12.7832 44.973 9.30044C41.2425 5.81799 36.1839 3.86511 30.911 3.86876C25.6415 3.87241 20.587 5.83266 16.86 9.31866C13.1373 12.8047 11.0475 17.5319 11.0514 22.4593C11.0631 27.38 13.1608 32.0957 16.8873 35.5748C20.61 39.05 25.6607 41.0065 30.9263 41.0138L30.9258 41.0151Z" fill="#A89C6C"/>
</svg>
