<svg width="20" height="20" viewBox="0 0 20 20" fill="none" xmlns="http://www.w3.org/2000/svg">
<path d="M19.2914 9.5678H15.5444V0H0V20H11.5637V14.5613H19.2914V9.5678ZM18.5494 13.8193H8.46967V12.1054H8.09868C7.10443 12.1054 5.90614 13.3853 5.90614 14.1903H6.64812C6.64812 13.8713 7.20089 13.1961 7.72769 12.9438V14.5613H10.8217V19.258H0.741977V14.5613H4.02894V12.9252C4.54832 13.1886 5.11222 13.875 5.11222 14.1903H5.8542C5.8542 13.3779 4.65591 12.0831 3.65795 12.0831H3.28696V13.8193H0.741977V6.34762H4.02894V4.71156C4.54832 4.97496 5.11222 5.66129 5.11222 5.97663H5.8542C5.8542 5.16416 4.65591 3.86941 3.65795 3.86941H3.28696V5.60564H0.741977V0.741977H8.43628V5.60564H6.55166V6.34762H8.43628V10.5175H9.17826V0.741977H14.8024V10.3098H18.5494V13.8193Z" fill="white"/>
</svg>
