<svg width="20" height="21" viewBox="0 0 20 21" fill="none" xmlns="http://www.w3.org/2000/svg">
<path fill-rule="evenodd" clip-rule="evenodd" d="M6.85098 7.35957C7.23295 7.35957 7.54285 7.66947 7.54285 8.05144C7.54285 8.43342 7.23295 8.74332 6.85098 8.74332C6.469 8.74332 6.1591 8.43342 6.1591 8.05144C6.1591 7.66947 6.469 7.35957 6.85098 7.35957ZM3.08859 19.4574V17.9105H1.62759L3.08859 19.4574ZM4.95065 3.18249H0.463559V3.18423H0.461823C0.205745 3.1851 -0.000863988 3.39344 2.71686e-06 3.64954L0.0859443 17.4053C0.0850762 17.4183 0.0842082 17.4304 0.0842082 17.4435C0.0842082 17.5789 0.142371 17.7004 0.234388 17.7855L3.10874 20.8299C3.19381 20.934 3.32403 21 3.469 21H13.5017C13.7586 21 13.967 20.7917 13.967 20.5347V18.8176H18.4541C18.711 18.8176 18.9194 18.6092 18.9194 18.3523V1.46531C18.9194 1.20836 18.711 1 18.4541 1H5.41615C5.15921 1 4.95084 1.20834 4.95084 1.46531L4.95065 3.18249ZM5.41769 4.11396H5.41595H5.41422H0.929574L1.01031 16.9792H3.55375C3.8107 16.9792 4.01906 17.1875 4.01906 17.4445V20.0695H13.0341L13.035 4.11391L5.41769 4.11396ZM9.99256 3.18249H5.88216V2.07307L9.99256 3.18249ZM8.9248 1.93157H17.9885V17.8872H13.9666V3.64876C13.9666 3.42479 13.8086 3.23814 13.5976 3.19301L8.9248 1.93157ZM2.62586 5.67129C2.36891 5.67129 2.16055 5.87964 2.16055 6.1366V12.8062C2.16055 13.0632 2.36889 13.2715 2.62586 13.2715H11.0013C11.2583 13.2715 11.4666 13.0632 11.4666 12.8062V6.1366C11.4666 5.87966 11.2583 5.67129 11.0013 5.67129H2.62586ZM2.62586 15.7151C2.36891 15.7151 2.16055 15.5067 2.16055 15.2498C2.16055 14.9928 2.36889 14.7845 2.62586 14.7845H11.2305C11.4874 14.7845 11.6958 14.9928 11.6958 15.2498C11.6958 15.5067 11.4874 15.7151 11.2305 15.7151H2.62586ZM5.24153 18.8037C4.98458 18.8037 4.77622 18.5953 4.77622 18.3383C4.77622 18.0814 4.98456 17.873 5.24153 17.873H11.2305C11.4874 17.873 11.6958 18.0814 11.6958 18.3383C11.6958 18.5953 11.4874 18.8037 11.2305 18.8037H5.24153ZM10.5351 11.0195V12.3408L3.09121 12.3399V11.2496L5.23626 9.73043L6.47763 10.78C6.64951 10.9258 6.89691 10.9241 7.06705 10.7886L8.41954 9.71046L10.5351 11.0187L10.5351 11.0195ZM3.09121 10.1141L4.99494 8.7651C5.17116 8.64096 5.40469 8.65659 5.56181 8.7894L5.56268 8.78854L6.78669 9.82243L8.09577 8.77898C8.26157 8.64703 8.48987 8.64703 8.65395 8.76422L10.5351 9.92747V6.60088L3.09121 6.60175L3.09121 10.1141Z" fill="white"/>
</svg>
