<svg width="60" height="60" viewBox="0 0 60 60" fill="none" xmlns="http://www.w3.org/2000/svg">
<g id="Frame 684898371">
<g id="Group 4702">
<path id="Vector" d="M41.8377 15.7653C42.7931 15.5742 43.3664 14.7143 43.2708 13.7589L42.3154 4.10938H38.4938L39.3537 12.4214L34.8633 13.4723C35.7231 14.4277 36.2008 15.6697 36.3919 17.0073L41.8377 15.7653Z" fill="#A89C6C"/>
<path id="Vector_2" d="M36.394 4.58593C37.0628 4.58593 37.5405 4.01269 37.7316 3.15283H42.8908C43.0819 4.01269 43.6551 4.58593 44.2283 4.58593C45.0882 4.58593 45.6614 3.53499 45.6614 2.29297C45.6614 1.05094 44.9927 0 44.2283 0C43.5596 0 43.0819 0.573241 42.8908 1.4331H37.7316C37.5405 0.573241 36.9673 0 36.394 0C35.5342 0 34.9609 1.05094 34.9609 2.29297C34.9609 3.53499 35.6297 4.58593 36.394 4.58593Z" fill="#A89C6C"/>
<path id="Vector_3" d="M3.71972 51.8789C2.76432 51.8789 2 52.6432 2 53.5986C2 54.554 2.76432 55.3184 3.71972 55.3184H20.0571C20.0571 55.1273 20.0571 55.3184 21.3947 51.9744H3.71972V51.8789Z" fill="#A89C6C"/>
<path id="Vector_4" d="M55.6935 51.8789H29.611L28.2734 55.2228H55.6935C56.6489 55.2228 57.4132 54.4585 57.4132 53.5031C57.4132 52.5477 56.6489 51.8789 55.6935 51.8789Z" fill="#A89C6C"/>
<path id="Vector_5" d="M4.39062 59.9997H8.97656L10.5052 55.2227H5.91927L4.39062 59.9997Z" fill="#A89C6C"/>
<path id="Vector_6" d="M48.9102 55.2227L50.4388 59.9997H55.0247L53.4961 55.2227H48.9102Z" fill="#A89C6C"/>
<path id="Vector_7" d="M28.3695 11.2721C31.4267 11.2721 33.9108 8.78807 33.9108 5.73079C33.9108 2.6735 31.4267 0.189453 28.3695 0.189453C25.3122 0.189453 22.8281 2.6735 22.8281 5.73079C22.8281 8.78807 25.3122 11.2721 28.3695 11.2721Z" fill="#A89C6C"/>
<path id="Vector_8" d="M30.9539 45.2841L31.3361 36.6855L33.0558 39.6472L34.3934 49.1057C34.9666 52.9273 40.6035 52.0674 40.0302 48.3414L38.5971 38.3097C38.5016 37.9275 38.4061 37.5453 38.215 37.2587L35.7309 33.0549C36.0175 32.2906 36.2086 31.5263 36.1131 30.6664L35.4443 17.3864C35.2532 14.2335 32.5781 11.845 29.4253 12.0361C27.3234 12.1316 25.6037 13.3737 24.6483 15.0934L19.298 21.1124C19.0114 21.4946 18.8203 21.9723 18.8203 22.45L19.2025 30.9531C19.2025 32.004 20.0623 32.7683 21.1133 32.7683C21.1133 32.7683 21.1133 32.7683 21.2088 32.7683C22.2598 32.7683 23.1196 31.8129 23.0241 30.762L22.7375 23.0232L24.1706 21.3035L24.7438 30.5709C24.9349 30.5709 25.126 30.5709 25.2215 30.5709C27.1323 30.6664 28.0877 33.5326 27.0368 35.539C26.6546 36.2078 26.1769 36.781 25.5081 36.9721L25.2215 44.5198L21.0177 55.3158C20.4445 56.7489 21.2088 58.4686 22.6419 59.0419C24.075 59.6151 25.7947 58.9463 26.368 57.4177L30.7628 46.2395C30.8584 45.8573 30.9539 45.5707 30.9539 45.2841Z" fill="#A89C6C"/>
<path id="Vector_9" d="M16.904 35.6369C17.5728 35.6369 18.146 35.0636 18.3371 34.2993L23.4962 34.5859C23.6873 35.4458 24.165 36.1146 24.7383 36.1146C26.1714 36.2101 26.9357 33.2484 25.7892 32.0063C25.5981 31.7197 25.3115 31.6242 25.0249 31.6242C24.5472 31.6242 23.8784 32.0063 23.5918 32.9617H22.923C22.4453 33.4394 21.7765 33.7261 21.0122 33.7261H21.1077C20.2479 33.7261 19.388 33.3439 18.9103 32.6751H18.5282C18.3371 31.8153 17.8594 31.1465 17.1906 31.1465C16.4263 31.1465 15.6619 32.1019 15.5664 33.3439C15.5664 34.5859 16.1396 35.6369 16.904 35.6369Z" fill="#A89C6C"/>
</g>
</g>
</svg>
