<svg width="86" height="60" viewBox="0 0 86 60" fill="none" xmlns="http://www.w3.org/2000/svg">
<path d="M58.0155 58.6989C60.3521 59.5623 62.9165 60 65.6374 60C70.9189 60 75.8842 57.9433 79.6188 54.2088C83.3535 50.4742 85.4102 45.5088 85.4102 40.2273C85.4102 37.5117 84.9599 34.9433 84.0716 32.5933C83.1547 30.1672 81.7934 28.0333 80.0256 26.2509C76.8161 23.015 72.398 21.0809 67.1359 20.5832C69.1401 16.7154 73.3151 8.90256 77.4315 2.71351C77.788 2.17746 77.8208 1.48895 77.5167 0.921555C77.2127 0.354161 76.6212 7.68354e-07 75.9775 8.2463e-07L68.6124 1.4685e-06C68.0901 1.51417e-06 67.5951 0.233835 67.2634 0.637335C67.2104 0.70186 61.898 7.1808 56.6606 15.004C49.4969 25.7045 45.8647 33.7576 45.8647 38.9398C45.8647 45.525 47.871 50.9778 51.6667 54.7087C53.4457 56.4571 55.5816 57.7997 58.0155 58.6989Z" fill="#A89C6C"/>
<path d="M5.80344 54.7087C7.58238 56.4571 9.71836 57.7997 12.1522 58.6989C14.4888 59.5623 17.0532 60 19.7741 60C25.0556 60 30.0209 57.9433 33.7556 54.2088C37.4902 50.4742 39.5469 45.5088 39.5469 40.2273C39.5469 37.5117 39.0966 34.9433 38.2084 32.5933C37.2914 30.1672 35.9301 28.0333 34.1623 26.2509C30.9528 23.015 26.5347 21.0809 21.2726 20.5832C23.2768 16.7154 27.4518 8.90256 31.5682 2.71351C31.9248 2.17746 31.9575 1.48895 31.6534 0.921555C31.3494 0.354161 30.7579 7.68355e-07 30.1142 8.2463e-07L22.7492 1.4685e-06C22.2268 1.51417e-06 21.7318 0.233835 21.4001 0.637335C21.3471 0.70186 16.0347 7.1808 10.7973 15.004C3.63366 25.7045 0.00138626 33.7576 0.00138671 38.9398C0.00138728 45.525 2.0077 50.9778 5.80344 54.7087Z" fill="#A89C6C"/>
</svg>
