<svg width="16" height="17" viewBox="0 0 16 17" fill="none" xmlns="http://www.w3.org/2000/svg">
<path d="M1.9256 0.0253906C0.862144 0.0253906 0 0.887535 0 1.95099C0 3.01445 0.862144 3.87659 1.9256 3.87659C2.98906 3.87659 3.8512 3.01445 3.8512 1.95099C3.8512 0.887535 2.98906 0.0253906 1.9256 0.0253906ZM12.0438 5.13699C10.4376 5.13699 9.3698 6.01664 8.92779 6.85252H8.85777V5.38206H5.70678V16.0254H8.99781V10.7737C8.99781 9.38644 9.27352 8.0429 10.9934 8.0429C12.6871 8.0429 12.709 9.60964 12.709 10.8438V16.0254H16V10.1786C16 7.31642 15.3917 5.13699 12.0438 5.13699ZM0.315098 5.38206V16.0254H3.64114V5.38206H0.315098Z" fill="white"/>
</svg>
