<svg width="60" height="60" viewBox="0 0 60 60" fill="none" xmlns="http://www.w3.org/2000/svg">
<g id="Frame 684898371">
<path id="Vector" fill-rule="evenodd" clip-rule="evenodd" d="M14.3664 12.7523C15.2316 11.2189 15.7053 9.37378 16.1466 7.00014H9.8933C8.48209 7.00014 7.34011 8.14212 7.34011 9.55333V16.8938H9.67386C12.0774 15.7069 13.4588 14.3705 14.3664 12.7523ZM16.0369 13.6923C17.1066 11.7874 17.6327 9.56329 18.094 7.0004H41.8833C42.3271 10.2368 43.2996 12.8398 45.0498 14.9166C46.112 16.1757 47.431 17.2105 49.0317 18.0756C48.1989 20.7609 47.7003 22.9377 47.5482 25.102C47.3986 27.2612 47.5956 29.3632 48.1042 31.8941H11.9683C12.5068 29.2661 12.639 27.1243 12.447 24.9973C12.2575 22.878 11.7438 20.811 11.0358 18.3475C13.4269 17.0759 14.9798 15.5723 16.0369 13.6923ZM46.5131 13.6823C45.1093 12.0143 44.2441 9.86998 43.8152 7H50.106C51.5172 7 52.6592 8.14198 52.6592 9.55319V17.5817C49.8616 16.5794 47.8919 15.3205 46.5131 13.6823ZM50.7792 18.9059C51.3751 19.1552 52.001 19.3896 52.6592 19.6091V29.3405C52.6592 30.7518 51.5172 31.8937 50.106 31.8937H50.0586C49.5151 29.2932 49.3156 27.276 49.4577 25.2337C49.5899 23.3438 50.0187 21.3943 50.7792 18.9059ZM10.539 25.1692C10.721 27.1738 10.5864 29.2284 10.0104 31.8937H9.89323C8.48202 31.8937 7.34004 30.7517 7.34004 29.3405V18.8086H9.17515C9.88577 21.277 10.3645 23.2169 10.539 25.1692ZM51.7992 38.9149H46.2765C44.8652 38.9149 43.7233 40.0569 43.7233 41.4681V45.9137H54.3522V41.4681C54.3522 40.0569 53.2079 38.9149 51.7992 38.9149ZM45.1271 46.5522H39.6043C38.1956 46.5522 37.0511 47.6966 37.0511 49.1054V51.883L35.8419 51.8755V49.1278C35.8419 47.7166 34.6974 46.5746 33.2887 46.5746H27.766C26.3547 46.5746 25.2128 47.7166 25.2128 49.1278V51.8207L23.7142 51.8132V49.1279C23.7142 47.7167 22.5698 46.5747 21.161 46.5747H15.6383C14.2271 46.5747 13.0851 47.7167 13.0851 49.1279V51.7559L11.5866 51.7484V49.1279C11.5866 47.7166 10.4421 46.5747 9.03339 46.5747H3.51065C2.09944 46.5747 0.957457 47.7166 0.957457 49.1279V51.691L0.962436 51.681C0.433849 51.6785 0.00250024 52.1049 1.08789e-05 52.6335C-0.00248231 53.1621 0.423879 53.5934 0.952479 53.5959L59.0376 53.9151C59.5661 53.9176 59.9975 53.4912 60 52.9626C60.0025 52.5811 59.7806 52.2495 59.4589 52.0949V49.1278C59.4589 47.7166 58.3144 46.5747 56.9057 46.5747H51.383C49.9718 46.5747 48.8298 47.7166 48.8298 49.1278V51.9454L47.6804 51.9404V49.1054C47.6804 47.6967 46.5383 46.5522 45.1271 46.5522ZM34.149 38.9149H39.6717C41.0805 38.9149 42.2249 40.0569 42.2249 41.4681V45.9137H31.596V41.4681C31.596 40.0569 32.7378 38.9149 34.149 38.9149ZM27.5439 38.9149H22.0211C20.6099 38.9149 19.468 40.0569 19.468 41.4681V45.9137H30.0969V41.4681C30.0969 40.0569 28.9526 38.9149 27.5439 38.9149ZM15.4935 38.9149H9.97073C8.56201 38.9149 7.41754 40.0569 7.41754 41.4681V45.9137H18.0465V41.4681C18.0465 40.0569 16.9047 38.9149 15.4935 38.9149Z" fill="#A89C6C"/>
</g>
</svg>
