<svg width="26" height="26" viewBox="0 0 26 26" fill="none" xmlns="http://www.w3.org/2000/svg">
<g id="Group 4">
<path id="Vector" d="M0.159131 6.06224C-0.583867 9.67485 1.24568 14.049 5.60124 19.0732C6.00986 19.5468 6.45561 19.9926 6.92925 20.4012C11.2198 24.1252 15.046 26.0012 18.315 26.0012C18.8722 26.0012 19.4108 25.9455 19.9309 25.8433C23.2742 25.1468 25.0387 22.4257 25.7909 20.8655C26.0509 20.3269 26.0695 19.6954 25.8559 19.1382C25.6331 18.581 25.1873 18.1445 24.6208 17.9309L18.7793 15.702C18.0271 15.4141 17.182 15.572 16.5783 16.1199L14.8417 17.6987C14.7767 17.7544 14.6652 17.773 14.563 17.7266C13.1515 17.1044 11.9441 16.0085 11.0433 15.1169C10.1797 14.2626 8.94448 12.9438 8.28515 11.4486C8.24796 11.3651 8.22937 11.235 8.31298 11.1515L9.88247 9.42407C10.4304 8.82046 10.5883 7.97532 10.3004 7.22308L8.07151 1.38164C7.85793 0.815154 7.42142 0.369346 6.86423 0.14647C6.30703 -0.0671096 5.67548 -0.0485173 5.13688 0.211488C3.57669 0.963726 0.855647 2.71898 0.159131 6.06224Z" fill="white"/>
<path id="Vector_2" d="M18.3501 7.65265C17.5647 6.86725 16.5816 6.30949 15.5074 6.04195C15.0135 5.91679 14.5061 6.2188 14.3814 6.7176C14.2572 7.2146 14.5596 7.71884 15.0575 7.84309C15.8048 8.02992 16.4891 8.41808 17.0369 8.96586C17.5847 9.51364 17.9728 10.1984 18.1596 10.9457C18.2649 11.3683 18.6439 11.6494 19.0598 11.6494C19.1346 11.6494 19.2103 11.6404 19.2856 11.6213C19.7835 11.4971 20.086 10.9937 19.9617 10.4958C19.6933 9.42205 19.1364 8.43895 18.3501 7.65265Z" fill="white"/>
<path id="Vector_3" d="M23.0798 10.6433C23.1546 10.6433 23.2303 10.6342 23.3061 10.6152C23.8035 10.491 24.106 9.98671 23.9817 9.48972C23.5305 7.68495 22.5973 6.03616 21.2823 4.72112C19.9681 3.40699 18.3189 2.47377 16.5137 2.02212C16.0176 1.89787 15.512 2.19897 15.3873 2.69777C15.263 3.19477 15.5655 3.69901 16.0629 3.82326C17.5421 4.19329 18.8925 4.95782 19.969 6.03434C21.046 7.11177 21.8101 8.46217 22.1797 9.93955C22.2853 10.3622 22.664 10.6433 23.0798 10.6433Z" fill="white"/>
</g>
</svg>
