<svg width="60" height="60" viewBox="0 0 60 60" fill="none" xmlns="http://www.w3.org/2000/svg">
<g id="Frame 684898371">
<g id="Group 4703">
<path id="Vector" d="M38.2031 45.7031H36.4453V15.2344H11.8359V45.7031H10.0781C9.61192 45.7031 9.16482 45.8883 8.83516 46.218C8.50551 46.5476 8.32031 46.9947 8.32031 47.4609C8.32031 47.9271 8.50551 48.3742 8.83516 48.7039C9.16482 49.0336 9.61192 49.2188 10.0781 49.2188H38.2031C38.6693 49.2188 39.1164 49.0336 39.4461 48.7039C39.7757 48.3742 39.9609 47.9271 39.9609 47.4609C39.9609 46.9947 39.7757 46.5476 39.4461 46.218C39.1164 45.8883 38.6693 45.7031 38.2031 45.7031ZM18.8672 24.6094C18.8672 23.2108 19.4228 21.8695 20.4117 20.8805C21.4007 19.8915 22.742 19.3359 24.1406 19.3359C25.5392 19.3359 26.8805 19.8915 27.8695 20.8805C28.8585 21.8695 29.4141 23.2108 29.4141 24.6094V30.4688C29.4141 30.6996 29.3686 30.9282 29.2803 31.1414C29.1919 31.3547 29.0624 31.5485 28.8992 31.7117C28.736 31.8749 28.5422 32.0044 28.3289 32.0928C28.1157 32.1811 27.8871 32.2266 27.6562 32.2266H20.625C20.1588 32.2266 19.7117 32.0414 19.382 31.7117C19.0524 31.3821 18.8672 30.935 18.8672 30.4688V24.6094Z" fill="#A89C6C"/>
<path id="Vector_2" d="M25.8984 24.6094C25.8984 24.1432 25.7132 23.6961 25.3836 23.3664C25.0539 23.0368 24.6068 22.8516 24.1406 22.8516C23.6744 22.8516 23.2273 23.0368 22.8977 23.3664C22.568 23.6961 22.3828 24.1432 22.3828 24.6094V28.7109H25.8984V24.6094Z" fill="#A89C6C"/>
<path id="Vector_3" d="M39.1313 3.29766C38.9435 2.36872 38.4407 1.53313 37.7079 0.932229C36.975 0.331334 36.0571 0.00202195 35.1094 0H13.1719C12.2242 0.00202195 11.3062 0.331334 10.5734 0.932229C9.84051 1.53313 9.3377 2.36872 9.15 3.29766L7.46484 11.7188H40.8164L39.1313 3.29766Z" fill="#A89C6C"/>
<path id="Vector_4" d="M8.32031 31.0547L2.15742 36.5473C1.4792 37.1521 0.936413 37.8934 0.564621 38.7226C0.192829 39.5518 0.000421457 40.4502 1.51225e-06 41.359V47.4609C-0.00044376 47.8005 0.0974509 48.1329 0.281856 48.4179C0.46626 48.703 0.729282 48.9286 1.03914 49.0674C1.34899 49.2062 1.69242 49.2524 2.02792 49.2002C2.36341 49.148 2.67662 48.9998 2.92969 48.7734L8.32031 43.9688V31.0547Z" fill="#A89C6C"/>
<path id="Vector_5" d="M56.032 38.2211C55.2303 37.879 54.5215 37.3508 53.9644 36.6804C53.4072 36.0099 53.0177 35.2165 52.8281 34.3656L52.7801 34.1582C52.0722 31.0913 50.4805 28.2994 48.202 26.128C45.9235 23.9565 43.0583 22.501 39.9609 21.9414V33.0191C40.5997 33.4037 41.1541 33.9134 41.5911 34.5175C42.0281 35.1216 42.3386 35.8077 42.5039 36.5348L42.552 36.7434C43.3721 40.2902 45.3698 43.4545 48.2193 45.7202C51.0687 47.9858 54.6018 49.2192 58.2422 49.2191C58.7084 49.2191 59.1555 49.0339 59.4851 48.7043C59.8148 48.3746 60 47.9275 60 47.4613V44.1648C59.9929 42.8945 59.6132 41.6542 58.9078 40.5976C58.2025 39.541 57.2026 38.7147 56.032 38.2211Z" fill="#A89C6C"/>
</g>
</g>
</svg>
