<svg width="60" height="60" viewBox="0 0 60 60" fill="none" xmlns="http://www.w3.org/2000/svg">
<g id="Frame 684898371">
<g id="Group">
<g id="Group_2">
<path id="Vector" d="M1.06973 27.7274C2.818 25.1633 4.9159 22.8323 7.01381 20.6178C7.71312 19.8019 8.87863 19.8019 9.46138 20.6178C11.6758 22.8323 13.6572 25.2798 15.4055 27.7274L16.1048 28.6598C16.8041 29.4757 16.2213 30.6412 15.1724 30.6412H11.4427C11.6758 40.6645 19.8344 48.7065 29.9743 48.7065C33.5874 48.7065 36.8508 47.6576 39.7646 45.9093C41.0466 45.0935 42.6783 45.3266 43.7273 46.3755C45.2425 47.8907 44.8928 50.3382 43.1445 51.5037C39.2984 53.8348 34.7529 55.2334 29.9743 55.2334C16.2213 55.2334 5.149 44.161 4.91589 30.5246H1.18627C0.137317 30.5246 -0.328889 29.3591 0.253865 28.5432L1.06973 27.7274ZM16.3379 13.9744C17.3868 15.0234 19.0185 15.2565 20.3006 14.4406C23.0978 12.6923 26.4778 11.6434 30.0909 11.6434C40.1142 11.6434 48.3893 19.6854 48.6224 29.7088H44.8928C43.8438 29.7088 43.3776 30.8743 43.9604 31.6901L44.6597 32.6225C46.408 35.1866 48.5059 37.5177 50.6038 39.7321C51.3031 40.548 52.4686 40.548 53.0514 39.7321C55.2658 37.5177 57.2472 35.0701 58.9954 32.6225L59.6947 31.6901C60.3941 30.8743 59.8113 29.7088 58.7624 29.7088H55.0327C54.7996 16.0723 43.6107 5 29.9743 5C25.0792 5 20.6503 6.39861 16.8041 8.72962C15.0558 10.0117 14.8227 12.4592 16.3379 13.9744Z" fill="#A89C6C"/>
</g>
</g>
</g>
</svg>
