<svg width="60" height="60" viewBox="0 0 60 60" fill="none" xmlns="http://www.w3.org/2000/svg">
<g id="Frame 684898371">
<g id="Group">
<path id="Vector" d="M40.2316 40.7012L40.1684 44.4906C40.1053 46.8906 38.1474 48.8485 35.7474 48.8485H24.5053C22.1053 48.8485 20.1474 46.9538 20.0842 44.5538L19.8947 40.7012C8.33684 41.9012 0 44.9959 0 48.6591C0 53.3328 13.4526 57.0591 30 57.0591C46.5474 57.0591 60 53.2696 60 48.6591C60 44.9959 51.7263 41.9012 40.2316 40.7012Z" fill="#A89C6C"/>
<path id="Vector_2" d="M14.3339 15.3103L13.7024 16.8261C13.2603 17.8366 13.7655 19.0366 14.7761 19.4787C15.0287 19.605 15.2813 19.6682 15.5971 19.6682C16.4182 19.6682 17.1129 19.2261 17.4918 18.405L18.1234 16.8892C19.1339 14.4892 18.755 11.7735 17.1129 9.7524C16.355 8.80503 16.2287 7.41556 16.9234 6.34187L17.6813 5.07872C18.2497 4.13135 17.9971 2.86819 16.9866 2.29977C16.0392 1.73135 14.7761 1.98398 14.2076 2.9945L13.4497 4.25766C11.8708 6.78398 12.0603 10.0682 13.955 12.3419C14.5866 13.1629 14.7761 14.2998 14.3339 15.3103Z" fill="#A89C6C"/>
<path id="Vector_3" d="M5.24202 15.3111L4.61044 16.8269C4.16834 17.8374 4.6736 19.0374 5.68413 19.4795C5.93676 19.6059 6.18939 19.669 6.50518 19.669C7.32623 19.669 8.02097 19.2269 8.39992 18.4059L9.03149 16.8901C10.042 14.4901 9.66307 11.7743 8.02097 9.75323C7.26307 8.80586 7.13676 7.41639 7.83149 6.34271L8.58939 5.07955C9.15781 4.13218 8.90518 2.86902 7.95781 2.3006C7.01044 1.73218 5.74728 1.98481 5.17886 2.93218L4.42097 4.19534C2.84202 6.72165 3.09465 10.0059 4.92623 12.2795C5.49465 13.1638 5.62097 14.3006 5.24202 15.3111Z" fill="#A89C6C"/>
<path id="Vector_4" d="M52.4824 15.3103L51.8508 16.8261C51.4087 17.8366 51.914 19.0366 52.9245 19.4787C53.1771 19.605 53.4298 19.6682 53.7455 19.6682C54.5666 19.6682 55.2613 19.2261 55.6403 18.405L56.2719 16.8892C57.2824 14.4892 56.9034 11.7735 55.2613 9.7524C54.5034 8.80503 54.3771 7.41556 55.0719 6.34187L55.8298 5.07872C56.3982 4.13135 56.1455 2.86819 55.135 2.29977C54.1877 1.73135 52.9245 1.98398 52.3561 2.9945L51.5982 4.25766C50.0192 6.78398 50.2087 10.0682 52.1034 12.3419C52.735 13.1629 52.8613 14.2998 52.4824 15.3103Z" fill="#A89C6C"/>
<path id="Vector_5" d="M43.3261 15.3103L42.6946 16.8261C42.2525 17.8366 42.7577 19.0366 43.7682 19.4787C44.0209 19.605 44.2735 19.6682 44.5893 19.6682C45.4103 19.6682 46.1051 19.2261 46.484 18.405L47.1156 16.8892C48.1261 14.4892 47.7472 11.7735 46.1051 9.7524C45.3472 8.80503 45.2209 7.41556 45.9156 6.34187L46.6735 5.07872C47.2419 4.13135 46.9893 2.86819 45.9788 2.29977C45.0314 1.73135 43.7682 1.98398 43.1998 2.9945L42.4419 4.25766C40.863 6.78398 41.0525 10.0682 42.9472 12.3419C43.5788 13.1629 43.7682 14.2998 43.3261 15.3103Z" fill="#A89C6C"/>
<path id="Vector_6" d="M50.9052 23.647C50.842 23.647 46.042 26.2364 41.5578 27.4996C37.3894 28.6996 32.9684 28.6996 30.5684 28.6996H29.4315C27.0315 28.6996 22.6105 28.6996 18.442 27.4996C13.8947 26.1733 9.09467 23.647 9.09467 23.647C7.64204 22.8891 5.87362 23.3943 5.11572 24.847C4.35783 26.2996 4.86309 28.068 6.31572 28.8259C6.5052 28.9522 11.6841 31.668 16.7999 33.1838C18.9473 33.8154 21.0947 34.1312 23.1157 34.3207L23.4947 44.4259C23.4947 44.9943 23.9999 45.4364 24.5052 45.4364H35.6841C36.2526 45.4364 36.6947 44.9943 36.6947 44.4259L36.8841 34.3207C38.842 34.1312 40.9894 33.7522 43.1368 33.1838C48.2526 31.7312 53.4315 28.9522 53.621 28.8259C55.0736 28.068 55.5789 26.2996 54.821 24.847C54.1263 23.4575 52.3578 22.8891 50.9052 23.647Z" fill="#A89C6C"/>
<path id="Vector_7" d="M29.9974 26.8679C33.5902 26.8679 36.5027 23.9554 36.5027 20.3627C36.5027 16.7699 33.5902 13.8574 29.9974 13.8574C26.4047 13.8574 23.4922 16.7699 23.4922 20.3627C23.4922 23.9554 26.4047 26.8679 29.9974 26.8679Z" fill="#A89C6C"/>
</g>
</g>
</svg>
