<svg width="77" height="80" viewBox="0 0 77 80" fill="none" xmlns="http://www.w3.org/2000/svg">
<g id="Group">
<path id="Vector" d="M76.4186 14.7704L57.7645 0.123011C57.5603 -0.0410037 57.2724 -0.0410037 57.0649 0.123011L38.4107 14.7704C38.2233 14.9211 38.153 15.1721 38.23 15.3964C38.3069 15.624 38.5212 15.7746 38.7588 15.7746H40.7939H40.7905C42.6214 15.7779 44.1043 17.2608 44.1043 19.0883V24.8823L58.2496 35.9848C59.1098 36.6643 59.4478 37.8123 59.0897 38.85C58.7316 39.8876 57.7542 40.5805 56.6564 40.5838H53.5234C53.4096 40.5838 53.3193 40.6742 53.3193 40.788V76.9876C53.3193 78.0754 52.9678 79.1331 52.3151 80H67.7123C69.3758 80 70.7247 78.6511 70.7247 76.9876V19.0953C70.7281 17.2644 72.2109 15.7816 74.0384 15.7816H76.0702C76.3078 15.7783 76.5187 15.6243 76.5957 15.4C76.676 15.1758 76.6057 14.9247 76.4183 14.7775L76.4186 14.7704Z" fill="#A89C6C"/>
<path id="Vector_2" d="M7.40709 60.5387C7.40269 58.0783 5.58076 56.0414 3.21088 55.7084L19.2217 43.143L35.2221 55.7112C32.8481 56.0419 31.0168 58.075 31.0168 60.5448V76.9891C31.0168 77.8242 30.3394 78.5015 29.5043 78.5015H8.91618C8.08117 78.5015 7.40391 77.8244 7.40374 76.9894C7.40374 76.9893 7.40374 76.9892 7.40374 76.9891L7.4071 60.5417L7.40709 60.5387Z" stroke="#A89C6C" stroke-width="3"/>
<path id="Vector_3" d="M57.0064 37.5668L38.3497 22.9193C38.1455 22.7587 37.8576 22.7587 37.6568 22.9193L19 37.5702C18.8126 37.7175 18.739 37.9685 18.8193 38.1928C18.8963 38.417 19.1072 38.571 19.3448 38.5743H22.4777C23.7028 38.5743 24.6902 39.5617 24.6935 40.7834V42.9758L39.4549 54.5668H39.4583C40.3185 55.2463 40.6565 56.3977 40.2984 57.432C39.9402 58.4696 38.9629 59.1658 37.865 59.1658H35.9002C35.1438 59.1658 34.5279 59.7784 34.5279 60.5382V76.9859C34.5279 78.0737 34.1764 79.1315 33.5237 79.9984H48.3014C49.9649 79.9984 51.3138 78.6495 51.3138 76.9859V40.7898C51.3138 39.5681 52.3045 38.5773 53.5229 38.5773H56.6592C56.8969 38.574 57.1078 38.4234 57.1847 38.1991C57.2651 37.9715 57.1948 37.7238 57.0107 37.5732L57.0064 37.5668Z" fill="#A89C6C"/>
</g>
</svg>
