<svg width="60" height="60" viewBox="0 0 60 60" fill="none" xmlns="http://www.w3.org/2000/svg">
<g id="Frame 684898371">
<g id="Group">
<path id="Vector" d="M21.2632 53.5504C24.4106 53.5504 27.4356 52.6554 30.0192 50.9669C32.6266 49.2396 35.6039 48.6161 38.262 49.2515C39.2047 49.4842 40.1474 49.5946 41.0663 49.5946C47.1402 49.5946 52.0897 44.9764 52.0897 39.3081C52.0897 33.6369 47.1435 29.0216 41.0663 29.0216C40.1235 29.0216 39.1808 29.132 38.274 29.3527C35.6278 30.0031 32.6416 29.3885 30.0075 27.6493C28.4532 26.62 26.7379 25.8981 24.939 25.4805V30.8683C24.939 32.8879 23.2862 34.5436 21.2636 34.5436C19.4498 34.5436 17.9462 33.234 17.6389 31.5066H15.8997C15.6044 33.2339 14.1008 34.5436 12.287 34.5436C10.4373 34.5436 8.89499 33.1594 8.65037 31.3605C6.9857 33.6754 6.04297 36.4439 6.04297 39.3077C6.03999 47.1564 12.8746 53.5495 21.2638 53.5495L21.2632 53.5504ZM40.8334 36.8945H45.3888C46.063 36.8945 46.615 37.4464 46.615 38.1206C46.615 38.8068 46.0631 39.3468 45.3888 39.3468H40.8334C40.1473 39.3468 39.6073 38.8068 39.6073 38.1206C39.6073 37.4464 40.1472 36.8945 40.8334 36.8945ZM31.3168 41.1695H35.8722C36.5464 41.1695 37.0983 41.7214 37.0983 42.3957C37.0983 43.0818 36.5464 43.6218 35.8722 43.6218H31.3168C30.6306 43.6218 30.0906 43.0819 30.0906 42.3957C30.0936 41.7185 30.6306 41.1695 31.3168 41.1695ZM24.2762 35.7937H28.8316C29.5058 35.7937 30.0578 36.3456 30.0578 37.0198C30.0578 37.6941 29.5059 38.246 28.8316 38.246H24.2762C23.5901 38.246 23.0501 37.6941 23.0501 37.0198C23.0501 36.3426 23.59 35.7937 24.2762 35.7937ZM13.7927 39.0365H18.3481C19.0223 39.0365 19.5742 39.5884 19.5742 40.2626C19.5742 40.9368 19.0223 41.4888 18.3481 41.4888H13.7927C13.1185 41.4888 12.5665 40.9369 12.5665 40.2626C12.5665 39.5884 13.1185 39.0365 13.7927 39.0365Z" fill="#A89C6C"/>
<path id="Vector_2" d="M41.5092 23.4365C40.101 23.4365 38.7169 23.6065 37.3684 23.9377C37.0611 24.0003 36.718 24.0481 36.3749 24.0481C35.286 24.0481 34.048 23.6304 32.9083 22.8726C30.4829 21.2915 27.7771 20.2026 24.9367 19.6895V22.9949C27.2159 23.4364 29.3936 24.3165 31.3536 25.6023C33.424 26.9626 35.6883 27.4638 37.6842 26.9746C38.785 26.7061 39.9246 26.5719 41.0642 26.5719C48.4985 26.5719 54.5369 32.2789 54.5369 39.3076C54.5369 46.3363 48.4988 52.0433 41.0642 52.0433C39.9485 52.0433 38.8119 51.9091 37.6842 51.6406C35.6883 51.1513 33.4211 51.6525 31.3656 53.0129C28.3645 54.9729 24.886 56.0022 21.2617 56.0022C11.5243 56.0022 3.58855 48.5082 3.58855 39.3111C3.58855 34.9138 5.43819 30.7369 8.60936 27.6645V23.2075C3.39166 26.8322 0 32.6975 0 39.3112C0 50.3194 9.41814 59.2725 20.9785 59.2725C25.2774 59.2725 29.3916 58.0613 32.9054 55.7343C34.0451 54.9885 35.2801 54.5709 36.372 54.5709C36.7151 54.5709 37.0582 54.6067 37.3655 54.6813C38.7139 55.0124 40.0951 55.1824 41.5062 55.1824C50.6678 55.1824 58.1262 48.0554 58.1262 39.3117C58.1262 30.5526 50.6681 23.4378 41.5093 23.4378L41.5092 23.4365Z" fill="#A89C6C"/>
<path id="Vector_3" d="M48.3064 22.1991V15.451H50.2903C50.1441 9.24283 47.4502 4.06094 45.9675 1.66211C44.4729 4.06361 41.779 9.2426 41.6328 15.451H43.6167V21.1103C45.2575 21.2684 46.8237 21.6472 48.3064 22.1991Z" fill="#A89C6C"/>
<path id="Vector_4" d="M12.2873 32.0914C12.9645 32.0914 13.5134 31.5425 13.5134 30.8653V29.0544H20.0378V30.8653C20.0378 31.5425 20.5868 32.0914 21.264 32.0914C21.9412 32.0914 22.4901 31.5425 22.4901 30.8653L22.4871 15.6208C22.4871 14.7317 23.2121 14.0098 24.0981 14.0098C24.9872 14.0098 25.7091 14.7347 25.7091 15.6208V15.8326C25.7091 16.5098 26.258 17.0587 26.9352 17.0587C27.6125 17.0587 28.1614 16.5098 28.1614 15.8326V15.6208C28.1614 13.3803 26.3386 11.5605 24.1012 11.5605C21.8607 11.5605 20.041 13.3833 20.041 15.6208V18.5653H13.5165V15.6208C13.5165 14.7317 14.2415 14.0098 15.1275 14.0098C16.0166 14.0098 16.7385 14.7347 16.7385 15.6208V15.8326C16.7385 16.5098 17.2874 17.0587 17.9647 17.0587C18.6419 17.0587 19.1908 16.5098 19.1908 15.8326V15.6208C19.1908 13.3803 17.368 11.5605 15.1306 11.5605C12.8901 11.5605 11.0704 13.3833 11.0704 15.6208V30.8653C11.0644 31.5425 11.61 32.0914 12.2873 32.0914ZM13.5134 21.0145H20.0378V22.6314H13.5134V21.0145ZM13.5134 25.0807H20.0378V26.6051H13.5134V25.0807Z" fill="#A89C6C"/>
<path id="Vector_5" d="M43.4937 1.00045C36.9037 2.16389 31.9219 7.91864 31.9219 14.8275V15.451H39.1831C39.3054 9.0937 41.8022 3.84071 43.4937 1.00045Z" fill="#A89C6C"/>
<path id="Vector_6" d="M55.8839 4.89319C53.9 2.90929 51.3165 1.51314 48.4258 1C50.1173 3.8401 52.6143 9.09386 52.7366 15.451H59.9978V14.8275C59.9978 10.9553 58.4316 7.44102 55.8839 4.89319Z" fill="#A89C6C"/>
</g>
</g>
</svg>
