<svg width="60" height="60" viewBox="0 0 60 60" fill="none" xmlns="http://www.w3.org/2000/svg">
<g id="Frame 684898371">
<path id="Vector" fill-rule="evenodd" clip-rule="evenodd" d="M30.2116 0C34.1625 2.71354 36.7544 7.26326 36.7544 12.4187C36.7544 13.5295 36.6343 14.6114 36.4059 15.6536C35.5553 13.0394 33.2613 11.2241 30.2116 11.2241C27.1619 11.2241 24.868 13.0394 24.0174 15.6536C23.789 14.6114 23.6688 13.5295 23.6688 12.4187C23.6688 7.26326 26.2602 2.71354 30.2116 0ZM30.2116 57.0564C28.514 57.1031 26.7548 57.8598 25.001 57.7963C21.5422 60.2298 16.0501 60.6171 15.6469 59.1106C15.2477 57.616 18.6291 56.8931 20.1534 56.2163C16.7477 55.6845 6.36572 53.2108 7.94469 48.882C9.3891 44.9192 20.5129 48.4888 22.9911 47.9773C23.1584 45.7305 23.6847 46.1556 24.0954 44.3556C24.7225 41.6088 24.3327 37.5835 23.9231 34.8932C23.9097 34.8034 23.8312 34.7274 23.723 34.718C23.6152 34.708 23.4931 34.7642 23.4836 34.853L22.5134 40.795C22.356 42.3219 21.6941 44.2633 19.7885 44.6277L9.34739 46.6258C6.73315 47.1943 6.12838 44.2221 8.42235 43.3333L18.356 40.0686L19.4806 31.6112C20.1107 28.1851 22.0521 27.0863 24.9628 26.7486C26.299 26.5202 27.7906 25.546 27.7866 24.2153C27.7836 23.2774 25.7061 22.6845 25.5745 20.2441L25.4713 18.3314C25.2811 14.8066 27.7424 13.0394 30.2116 13.0285C32.6809 13.0394 35.1417 14.8066 34.952 18.3314L34.8487 20.2441C34.7172 22.6845 32.6397 23.2774 32.6367 24.2153C32.6327 25.546 34.1243 26.5202 35.4605 26.7486C38.3711 27.0863 40.3126 28.1851 40.9427 31.6112L42.0673 40.0686L52.0009 43.3333C54.2949 44.2221 53.6901 47.1943 51.0759 46.6258L40.6348 44.6277C38.7291 44.2633 38.0673 42.3219 37.9099 40.795L36.9396 34.853C36.9302 34.7642 36.8081 34.708 36.7003 34.718C36.5921 34.7274 36.5136 34.8034 36.5002 34.8932C36.0906 37.5835 35.7008 41.6088 36.3279 44.3556C36.7385 46.1556 37.2644 45.7305 37.4322 47.9773C39.9099 48.4888 51.0342 44.9192 52.4786 48.882C54.0576 53.2108 43.6756 55.6845 40.2699 56.2163C41.7942 56.8931 45.1756 57.616 44.7759 59.1106C44.3732 60.6171 38.8811 60.2298 35.4222 57.7963C33.6685 57.8598 31.9093 57.1031 30.2116 57.0564ZM12.6488 7.27468C15.9532 6.66147 19.423 7.15849 22.4583 8.76725C22.1932 9.95198 22.0546 11.1754 22.0546 12.4187C22.0546 14.9952 22.647 17.4859 23.7394 19.7262L23.7731 20.3419C23.8392 21.5594 24.2543 22.623 25.0149 23.5713C25.2563 23.8717 25.5189 24.1428 25.792 24.4135C25.8014 24.4229 25.8114 24.4328 25.8218 24.4428C25.6138 24.627 25.2533 24.7903 24.9673 24.8867C21.9782 24.3896 19.1097 22.9889 16.8038 20.6825C13.1583 17.0375 11.7739 11.9878 12.6488 7.27468ZM47.7745 7.27468C44.47 6.66147 41.0003 7.15849 37.9645 8.76725C38.2301 9.95198 38.3682 11.1754 38.3682 12.4187C38.3682 14.9952 37.7763 17.4859 36.6834 19.7262L36.6502 20.3419C36.5841 21.5594 36.169 22.623 35.4083 23.5713C35.167 23.8717 34.9044 24.1428 34.6313 24.4135C34.6218 24.4229 34.6119 24.4328 34.6015 24.4428C34.8095 24.627 35.17 24.7903 35.456 24.8867C38.4451 24.3896 41.3136 22.9889 43.6195 20.6825C47.265 17.0375 48.6493 11.9878 47.7745 7.27468Z" fill="#A89C6C"/>
</g>
</svg>
